<svg xmlns="http://www.w3.org/2000/svg" width="100" height="100" viewBox="0 0 100 100">
  <!-- Shopping Cart -->
  <path fill="#FFA500" d="M87.5 22.7h-17.7l-4.2-9.5c-.5-1.2-1.6-2-2.9-2h-39c-1.3 0-2.4.8-2.9 2l-4.2 9.5H12.5c-.7 0-1.2.6-1.2 1.2v3c0 .7.6 1.2 1.2 1.2h4.8l2.5 34.4c.2 2.5 2.2 4.4 4.7 4.4h54.4c2.5 0 4.6-2 4.7-4.4l2.5-34.4h4.8c.7 0 1.2-.6 1.2-1.2v-3c0-.7-.5-1.2-1.2-1.2zm-50.6-7h37.9l3.3 7.5H39.2l-1.6-7.5zm42.9 44.4H22.1l-2.3-32.1h63.4l-2.3 32.1z"/>
  <!-- Smiling Emoji -->
  <circle fill="#FFD700" cx="77" cy="26" r="5"/>
  <circle fill="#FFD700" cx="61" cy="26" r="5"/>
  <path fill="#000" d="M62 32c-.3 0-.5-.1-.7-.3-3-2.2-6.9-2.2-10 0-.3.2-.7.3-1 .3s-.6-.1-1-.3c-4.4-3.3-10.3-3.3-14.7 0-.4.2-.8.3-1 .3-.3 0-.6-.1-1-.3-.3-.2-.7-.3-1-.3s-.6.1-1 .3c-3.1 2.2-6.9 2.2-10 0-.3-.2-.6-.3-1-.3s-.7.1-1 .3c-1.1.8-2.5 1.2-4 1.2-2.4 0-4.6-1.1-6-3-.2-.3-.7-.5-1.1-.2-.3.2-.5.7-.2 1.1 1.7 2.2 4.2 3.2 7.3 3.2 3.1 0 5.6-1 7.3-3.2.2-.3 0-.8-.2-1.1-.6-.9-.9-2-1-3.1 1.4-.3 2.9-.3 4.3 0 .3 0 .7-.1 1-.3s.7.1 1 .3c1.4 1 3 1.5 4.7 1.5s3.3-.5 4.7-1.5c.3-.2.7-.3 1-.3s.7.1 1 .3c1.4 1 3 1.5 4.7 1.5s3.3-.5 4.7-1.5c.3-.2.7-.3 1-.3s.7.1 1 .3c.3.2.5.7.3 1-.1.4-.2.7-.3 1 1.7 2.2 4.2 3.2 7.3 3.2 3.1 0 5.6-1 7.3-3.2.2-.3 0-.8-.3-1-.2-.2-.4-.3-.7-.3zm-24-6c2.8 0 5 2.2 5 5s-2.2 5-5 5-5-2.2-5-5 2.2-5 5-5zm14 0c2.8 0 5 2.2 5 5s-2.2 5-5 5-5-2.2-5-5 2.2-5 5-5z"/>
</svg>
